<svg width="145" height="100" fill="none" xmlns="http://www.w3.org/2000/svg"><path opacity=".7" d="M46.153 85.447c-4.31-.544-8.107 13.42-9.632 13.635-1.775-.172-24.551-16.464-27.597-19.338-1.095-1.029-1.12-1.408-.168-1.646 1.68-.254 7.44-13.835 7.44-13.835.838.312-1.313-1.766-.368-1.273 2.25 1.06 12.183-20.563 13.143-22.328.595-1.07 1.48.649 1.695-.92.535-3.294 5.219-8.192 5.176-10.97-.066-2.252.123-2.608 1.932-3.547 1.743-1.031 5.863-9.868 4.828-11.857-.311-.524-.036-.591.497-.244.105.071 4.182-5.405 4.591-5.177.543.293.912.277.662-.11-.355-.648 1.598-8.016 3.175-7.133 4.544 2.51 22.496 15.306 26.527 18.918 4.341 3.832-3.606 4.322-2.764 9.402l-9.295 15.068-.252 4.353c-1.809-.653 1.225 3.3-2.12 2.346-1.34-.361-3.134 2.071-2.315 3.396.6 1.08-10.035 12.567-7.753 15.928-4.158.669-6.581 12.713-7.384 15.343l-.018-.011ZM103.153 85.447c-4.31-.544-8.107 13.42-9.632 13.635-1.775-.172-24.551-16.464-27.597-19.338-1.095-1.029-1.12-1.408-.168-1.646 1.68-.254 7.44-13.834 7.44-13.834.838.311-1.313-1.767-.368-1.274 2.25 1.06 12.183-20.563 13.144-22.328.594-1.07 1.48.649 1.694-.92.535-3.293 5.219-8.192 5.176-10.97-.066-2.252.123-2.608 1.932-3.547 1.743-1.03 5.863-9.868 4.828-11.857-.311-.523-.036-.59.497-.244.105.071 4.182-5.405 4.591-5.177.543.294.912.277.662-.11-.355-.648 1.598-8.016 3.175-7.133 4.544 2.51 22.496 15.306 26.527 18.918 4.341 3.833-3.606 4.322-2.764 9.402l-9.295 15.068-.252 4.353c-1.809-.653 1.225 3.3-2.119 2.346-1.341-.361-3.135 2.071-2.316 3.396.6 1.08-10.036 12.567-7.753 15.928-4.158.67-6.581 12.713-7.384 15.344l-.018-.012Z" fill="#FF3C00"/></svg>