<svg width="145" height="100" viewBox="0 0 145 100" fill="none" xmlns="http://www.w3.org/2000/svg">
<path opacity="0.7" d="M46.153 85.4465C41.8421 84.903 38.046 98.8677 36.5214 99.0817C34.7461 98.9095 11.9698 82.6179 8.92435 79.7435C7.82882 78.7151 7.80333 78.336 8.75614 78.0982C10.4357 77.8439 16.1963 64.2634 16.1963 64.2634C17.034 64.5752 14.8829 62.497 15.8284 62.99C18.0787 64.0495 28.0113 42.4271 28.9715 40.6624C29.5659 39.5917 30.4513 41.3106 30.6656 39.7424C31.2005 36.4483 35.8846 31.5502 35.8419 28.7713C35.7761 26.5195 35.9646 26.1642 37.7737 25.2253C39.5173 24.194 43.6374 15.3572 42.602 13.3681C42.2906 12.8445 42.5661 12.777 43.0988 13.1242C43.2042 13.1953 47.2814 7.71902 47.6902 7.94655C48.2332 8.24044 48.6022 8.22395 48.3515 7.83773C47.997 7.18852 49.9503 -0.178797 51.5274 0.704057C56.0711 3.21399 74.0228 16.0101 78.0536 19.6215C82.395 23.4545 74.4478 23.9442 75.2902 29.0236L65.9954 44.0922L65.743 48.4453C63.9342 47.7922 66.9683 51.7445 63.6238 50.7913C62.283 50.4297 60.4888 52.8623 61.3079 54.1868C61.9083 55.2673 51.2725 66.7535 53.5551 70.1145C49.3973 70.784 46.9737 82.8277 46.1706 85.4584L46.153 85.4465Z" fill="#FF3C00"/>
<path opacity="0.7" d="M103.153 85.4466C98.8421 84.9031 95.046 98.8678 93.5214 99.0818C91.7461 98.9096 68.9698 82.618 65.9243 79.7436C64.8288 78.7152 64.8033 78.3361 65.7561 78.0983C67.4357 77.844 73.1963 64.2636 73.1963 64.2636C74.034 64.5753 71.8829 62.4971 72.8284 62.9901C75.0787 64.0496 85.0113 42.4272 85.9715 40.6625C86.5659 39.5918 87.4513 41.3108 87.6656 39.7425C88.2005 36.4485 92.8846 31.5504 92.8419 28.7714C92.7761 26.5196 92.9646 26.1643 94.7737 25.2254C96.5173 24.1941 100.637 15.3573 99.602 13.3682C99.2906 12.8446 99.5661 12.7771 100.099 13.1243C100.204 13.1954 104.281 7.71914 104.69 7.94667C105.233 8.24056 105.602 8.22407 105.352 7.83785C104.997 7.18864 106.95 -0.178675 108.527 0.704179C113.071 3.21411 131.023 16.0102 135.054 19.6216C139.395 23.4546 131.448 23.9443 132.29 29.0238L122.995 44.0923L122.743 48.4454C120.934 47.7923 123.968 51.7446 120.624 50.7914C119.283 50.4298 117.489 52.8624 118.308 54.1869C118.908 55.2674 108.272 66.7536 110.555 70.1147C106.397 70.7841 103.974 82.8278 103.171 85.4585L103.153 85.4466Z" fill="#FF3C00"/>
</svg>
